<?xml version="1.0" encoding="UTF-8"?> <svg xmlns:v="https://vecta.io/nano" xmlns="http://www.w3.org/2000/svg" xmlns:xlink="http://www.w3.org/1999/xlink" version="1.1" id="Layer_1" x="0px" y="0px" viewBox="0 0 234 50" style="enable-background:new 0 0 234 50;" xml:space="preserve"> <style type="text/css"> .st0{fill-rule:evenodd;clip-rule:evenodd;} .st1{fill-rule:evenodd;clip-rule:evenodd;fill:#8AAAF1;} .st2{fill-rule:evenodd;clip-rule:evenodd;fill:#FF8977;} </style> <path class="st0" d="M80.3,16.1c-1.5,0-2.7,0.4-3.8,1.1s-1.8,1.6-2.2,2.8h-0.2c-0.3-1.2-0.9-2.1-1.9-2.8s-2.1-1.1-3.5-1.1 s-2.5,0.3-3.5,1s-1.7,1.6-2.1,2.8H63v-3.6h-6V36h6.3V24.4c0-0.7,0.1-1.2,0.4-1.7c0.3-0.5,0.6-0.9,1-1.1s0.9-0.4,1.4-0.4 c0.8,0,1.5,0.3,2,0.8s0.7,1.3,0.7,2.2v11.9h6V24.3c0-0.9,0.2-1.7,0.7-2.3s1.2-0.8,2-0.8s1.5,0.3,2,0.8s0.8,1.3,0.8,2.3v11.9h6.3 V22.8c0-2.1-0.6-3.7-1.7-4.9S82.1,16.1,80.3,16.1 M95,24c0-0.6,0.2-1.2,0.5-1.7s0.8-1,1.3-1.3s1.2-0.5,1.9-0.5 c0.7,0,1.3,0.1,1.8,0.4s1,0.7,1.3,1.2s0.5,1.1,0.5,1.8C102.3,24,95,24,95,24z M105.5,18.6c-0.8-0.9-1.9-1.5-3-1.9s-2.4-0.7-3.8-0.7 c-2,0-3.7,0.4-5.2,1.3c-1.5,0.8-2.6,2.1-3.4,3.6s-1.2,3.3-1.2,5.4s0.4,3.9,1.2,5.4c0.8,1.5,1.9,2.7,3.4,3.5s3.3,1.2,5.3,1.2 c1.7,0,3.2-0.3,4.5-0.8s2.4-1.3,3.2-2.2s1.3-2.1,1.6-3.4l-5.8-0.2c-0.2,0.4-0.4,0.8-0.7,1.1s-0.7,0.5-1.2,0.7s-1,0.2-1.5,0.2 c-0.8,0-1.5-0.2-2.1-0.5s-1-0.8-1.3-1.4s-0.5-1.2-0.5-2v-0.2h13.1v-1.6c0-1.6-0.2-3.1-0.7-4.3S106.3,19.5,105.5,18.6L105.5,18.6 L105.5,18.6z M110.4,36.1h6.3V9.7h-6.3V36.1L110.4,36.1z M130.9,29c0,0.6-0.2,1.2-0.5,1.7s-0.8,0.9-1.3,1.1s-1.1,0.5-1.8,0.5 s-1.3-0.2-1.8-0.5s-0.7-0.8-0.7-1.5c0-0.4,0.1-0.8,0.3-1.1s0.5-0.6,0.9-0.8s0.9-0.3,1.5-0.4l0.9-0.1l0.9-0.2l0.8-0.2 c0.3-0.1,0.5-0.2,0.6-0.3L130.9,29L130.9,29z M134.7,17.8c-0.8-0.6-1.7-1-2.8-1.3s-2.2-0.4-3.5-0.4c-1.8,0-3.3,0.3-4.5,0.8 s-2.2,1.3-3,2.2c-0.7,0.9-1.2,2.1-1.3,3.2l5.8,0.2c0.1-0.6,0.5-1.1,1-1.5s1.2-0.5,2-0.5s1.4,0.2,1.8,0.5s0.7,0.9,0.7,1.5v0.1 c0,0.4-0.2,0.7-0.5,0.9s-0.8,0.4-1.5,0.5l-2.7,0.3c-1,0.1-1.9,0.2-2.8,0.5s-1.7,0.6-2.3,1.1s-1.2,1.1-1.6,1.8s-0.6,1.7-0.6,2.8 c0,1.3,0.3,2.4,0.8,3.2s1.3,1.5,2.3,1.9s2.1,0.6,3.3,0.6c0.9,0,1.7-0.1,2.5-0.3c0.7-0.2,1.4-0.6,1.9-1c0.6-0.5,1-1.1,1.3-1.7h0.2V36 h5.9V22.6c0-1-0.2-2-0.6-2.8S135.4,18.3,134.7,17.8L134.7,17.8z M153,29c-0.3,0.8-0.7,1.4-1.2,1.8s-1.2,0.6-2,0.6s-1.4-0.2-2-0.6 s-1-1-1.2-1.8s-0.4-1.7-0.4-2.8c0-1.1,0.1-2,0.4-2.8s0.7-1.4,1.2-1.8s1.2-0.6,2-0.6s1.4,0.2,2,0.6s0.9,1,1.2,1.8s0.4,1.7,0.4,2.8 S153.3,28.2,153,29 M155.9,17.1c-1.2-0.7-2.5-1.1-3.8-1.1c-1,0-1.9,0.2-2.7,0.5c-0.7,0.4-1.3,0.8-1.8,1.4s-0.8,1.1-1.1,1.7h-0.2 v-3.3h-6.2v27.2h6.3V32.9h0.1c0.3,0.6,0.7,1.2,1.1,1.7c0.5,0.5,1.1,1,1.8,1.3s1.6,0.4,2.6,0.4c1.5,0,2.8-0.4,4-1.1s2.1-1.9,2.8-3.4 s1.1-3.4,1.1-5.6c0-2.3-0.4-4.2-1.1-5.7S157.1,17.8,155.9,17.1 M184.6,16c1.4,0,2.7,0.2,3.8,0.7s2.2,1.1,3,1.9s1.5,1.9,2,3.2 s0.7,2.7,0.7,4.3v1.6H181v0.2c0,0.8,0.2,1.5,0.5,2.1s0.8,1.1,1.3,1.4s1.3,0.5,2.1,0.5c0.6,0,1.1-0.1,1.5-0.2s0.8-0.4,1.2-0.7 s0.6-0.7,0.7-1.1l5.8,0.2c-0.2,1.3-0.8,2.4-1.6,3.4s-1.9,1.7-3.2,2.2s-2.8,0.8-4.5,0.8c-2.1,0-3.8-0.4-5.3-1.2s-2.6-2-3.4-3.5 s-1.2-3.3-1.2-5.4c0-2,0.4-3.8,1.2-5.4c0.8-1.5,1.9-2.7,3.4-3.6C180.9,16.5,182.6,16,184.6,16L184.6,16z M173.2,16 c0.3,0,0.6,0,0.9,0.1c0.3,0,0.6,0.1,0.9,0.2v5.5c-0.3-0.1-0.7-0.2-1.2-0.2s-0.9-0.1-1.3-0.1c-0.7,0-1.4,0.2-2,0.5s-1.1,0.8-1.4,1.4 s-0.5,1.3-0.5,2.1v10.7h-6.3V16.3h6.1v3.6h0.2c0.4-1.3,0.9-2.3,1.8-2.9S172.1,16,173.2,16L173.2,16z M184.7,20.6 c-0.7,0-1.3,0.2-1.9,0.5s-1,0.7-1.3,1.3c-0.3,0.5-0.5,1.1-0.5,1.7h7.3c0-0.7-0.2-1.3-0.5-1.8s-0.7-0.9-1.3-1.2 S185.4,20.6,184.7,20.6z M208.3,24.4l-3.8-0.7c-0.8-0.2-1.4-0.4-1.7-0.7s-0.5-0.6-0.5-1c0-0.5,0.2-0.9,0.8-1.2s1.1-0.4,1.9-0.4 c0.6,0,1,0.1,1.5,0.3s0.8,0.4,1,0.8s0.4,0.7,0.5,1.1l5.8-0.2c-0.2-2-1-3.5-2.6-4.6s-3.6-1.7-6.3-1.7c-1.8,0-3.3,0.2-4.6,0.7 s-2.3,1.2-3,2.2s-1.1,2.1-1.1,3.4c0,1.5,0.5,2.7,1.4,3.7s2.4,1.6,4.4,2l3.4,0.7c0.8,0.2,1.4,0.4,1.8,0.6s0.6,0.6,0.6,1.1 s-0.3,0.9-0.8,1.2s-1.2,0.5-2,0.5c-0.9,0-1.6-0.2-2.2-0.6s-0.9-0.9-1.1-1.6l-6.2,0.2c0.2,2,1.2,3.5,2.8,4.7s3.8,1.7,6.7,1.7 c1.8,0,3.3-0.3,4.7-0.8s2.4-1.3,3.2-2.3s1.2-2.2,1.2-3.5c0-1.4-0.5-2.6-1.5-3.5S210.3,24.8,208.3,24.4 M232.5,26.3 c-1-0.9-2.4-1.5-4.4-1.9l-3.8-0.7c-0.8-0.2-1.4-0.4-1.7-0.7s-0.5-0.6-0.5-1c0-0.5,0.2-0.9,0.8-1.2s1.1-0.4,1.9-0.4 c0.6,0,1,0.1,1.5,0.3s0.8,0.4,1,0.8s0.4,0.7,0.5,1.1l5.8-0.2c-0.2-2-1-3.5-2.6-4.6s-3.6-1.7-6.3-1.7c-1.8,0-3.3,0.2-4.6,0.7 s-2.3,1.2-3,2.2s-1.1,2.1-1.1,3.4c0,1.5,0.5,2.7,1.4,3.7s2.4,1.6,4.4,2l3.4,0.7c0.8,0.2,1.4,0.4,1.8,0.6s0.6,0.6,0.6,1.1 s-0.3,0.9-0.8,1.2s-1.2,0.5-2,0.5c-0.9,0-1.6-0.2-2.2-0.6s-0.9-0.9-1.1-1.6l-6.2,0.2c0.2,2,1.2,3.5,2.8,4.7s3.8,1.7,6.7,1.7 c1.8,0,3.3-0.3,4.7-0.8s2.4-1.3,3.2-2.3s1.2-2.2,1.2-3.5C234,28.3,233.5,27.1,232.5,26.3"></path> <path class="st1" d="M44,0.3l-23,14l8.8,8.7L12,34v10.3h32l0,0V0.3z"></path> <path class="st2" d="M0,0.3v44h7.3V31.1l14.7-9L0,0.3z"></path> </svg> 